<svg width="788" height="210" viewBox="0 0 788 210" fill="none" xmlns="http://www.w3.org/2000/svg">
<path d="M11.62 155V57H30.38L72.1 126.16H62.16L103.18 57H121.8L122.08 155H100.8L100.66 89.62H104.58L71.82 144.64H61.6L28.14 89.62H32.9V155H11.62ZM184.391 155V140.3L182.991 137.08V110.76C182.991 106.093 181.544 102.453 178.651 99.84C175.851 97.2267 171.511 95.92 165.631 95.92C161.618 95.92 157.651 96.5733 153.731 97.88C149.904 99.0933 146.638 100.773 143.931 102.92L136.091 87.66C140.198 84.7667 145.144 82.5267 150.931 80.94C156.718 79.3533 162.598 78.56 168.571 78.56C180.051 78.56 188.964 81.2667 195.311 86.68C201.658 92.0933 204.831 100.54 204.831 112.02V155H184.391ZM161.431 156.12C155.551 156.12 150.511 155.14 146.311 153.18C142.111 151.127 138.891 148.373 136.651 144.92C134.411 141.467 133.291 137.593 133.291 133.3C133.291 128.82 134.364 124.9 136.511 121.54C138.751 118.18 142.251 115.567 147.011 113.7C151.771 111.74 157.978 110.76 165.631 110.76H185.651V123.5H168.011C162.878 123.5 159.331 124.34 157.371 126.02C155.504 127.7 154.571 129.8 154.571 132.32C154.571 135.12 155.644 137.36 157.791 139.04C160.031 140.627 163.064 141.42 166.891 141.42C170.531 141.42 173.798 140.58 176.691 138.9C179.584 137.127 181.684 134.56 182.991 131.2L186.351 141.28C184.764 146.133 181.871 149.82 177.671 152.34C173.471 154.86 168.058 156.12 161.431 156.12ZM244.337 156.12C237.897 156.12 231.691 155.373 225.717 153.88C219.837 152.293 215.171 150.333 211.717 148L218.997 132.32C222.451 134.467 226.511 136.24 231.177 137.64C235.937 138.947 240.604 139.6 245.177 139.6C250.217 139.6 253.764 138.993 255.817 137.78C257.964 136.567 259.037 134.887 259.037 132.74C259.037 130.967 258.197 129.66 256.517 128.82C254.931 127.887 252.784 127.187 250.077 126.72C247.371 126.253 244.384 125.787 241.117 125.32C237.944 124.853 234.724 124.247 231.457 123.5C228.191 122.66 225.204 121.447 222.497 119.86C219.791 118.273 217.597 116.127 215.917 113.42C214.331 110.713 213.537 107.213 213.537 102.92C213.537 98.16 214.891 93.96 217.597 90.32C220.397 86.68 224.411 83.8333 229.637 81.78C234.864 79.6333 241.117 78.56 248.397 78.56C253.531 78.56 258.757 79.12 264.077 80.24C269.397 81.36 273.831 82.9933 277.377 85.14L270.097 100.68C266.457 98.5333 262.771 97.0867 259.037 96.34C255.397 95.5 251.851 95.08 248.397 95.08C243.544 95.08 239.997 95.7333 237.757 97.04C235.517 98.3467 234.397 100.027 234.397 102.08C234.397 103.947 235.191 105.347 236.777 106.28C238.457 107.213 240.651 107.96 243.357 108.52C246.064 109.08 249.004 109.593 252.177 110.06C255.444 110.433 258.711 111.04 261.977 111.88C265.244 112.72 268.184 113.933 270.797 115.52C273.504 117.013 275.697 119.113 277.377 121.82C279.057 124.433 279.897 127.887 279.897 132.18C279.897 136.847 278.497 141 275.697 144.64C272.897 148.187 268.837 150.987 263.517 153.04C258.291 155.093 251.897 156.12 244.337 156.12ZM318.572 156.12C309.706 156.12 302.799 153.88 297.852 149.4C292.906 144.827 290.432 138.06 290.432 129.1V63.02H312.272V128.82C312.272 131.993 313.112 134.467 314.792 136.24C316.472 137.92 318.759 138.76 321.652 138.76C325.106 138.76 328.046 137.827 330.472 135.96L336.352 151.36C334.112 152.947 331.406 154.16 328.232 155C325.152 155.747 321.932 156.12 318.572 156.12ZM278.812 96.48V79.68H331.032V96.48H278.812ZM378.068 156.12C369.481 156.12 361.921 154.44 355.388 151.08C348.948 147.72 343.954 143.147 340.408 137.36C336.861 131.48 335.088 124.807 335.088 117.34C335.088 109.78 336.814 103.107 340.268 97.32C343.814 91.44 348.621 86.8667 354.688 83.6C360.754 80.24 367.614 78.56 375.268 78.56C382.641 78.56 389.268 80.1467 395.148 83.32C401.121 86.4 405.834 90.88 409.288 96.76C412.741 102.547 414.468 109.5 414.468 117.62C414.468 118.46 414.421 119.44 414.328 120.56C414.234 121.587 414.141 122.567 414.048 123.5H352.868V110.76H402.568L394.168 114.54C394.168 110.62 393.374 107.213 391.788 104.32C390.201 101.427 388.008 99.1867 385.208 97.6C382.408 95.92 379.141 95.08 375.408 95.08C371.674 95.08 368.361 95.92 365.468 97.6C362.668 99.1867 360.474 101.473 358.888 104.46C357.301 107.353 356.508 110.807 356.508 114.82V118.18C356.508 122.287 357.394 125.927 359.168 129.1C361.034 132.18 363.601 134.56 366.868 136.24C370.228 137.827 374.148 138.62 378.628 138.62C382.641 138.62 386.141 138.013 389.128 136.8C392.208 135.587 395.008 133.767 397.528 131.34L409.148 143.94C405.694 147.86 401.354 150.893 396.128 153.04C390.901 155.093 384.881 156.12 378.068 156.12ZM423.408 155V79.68H444.268V100.96L441.328 94.8C443.568 89.48 447.161 85.4667 452.108 82.76C457.055 79.96 463.075 78.56 470.168 78.56V98.72C469.235 98.6267 468.395 98.58 467.648 98.58C466.901 98.4867 466.108 98.44 465.268 98.44C459.295 98.44 454.441 100.167 450.708 103.62C447.068 106.98 445.248 112.253 445.248 119.44V155H423.408ZM532.608 155H500.789L517.693 53.1818H550.108C559.984 53.1818 568.121 55.2533 574.518 59.3963C580.948 63.5393 585.422 69.4555 587.941 77.1449C590.493 84.8343 590.875 94.0152 589.085 104.688C587.361 115.161 584.014 124.16 579.042 131.683C574.104 139.174 567.707 144.941 559.852 148.984C552.03 152.995 542.948 155 532.608 155ZM514.958 144.062H533.005C541.424 144.062 548.682 142.405 554.781 139.091C560.912 135.777 565.851 131.054 569.596 124.922C573.375 118.79 575.96 111.515 577.352 103.097C578.744 95.0095 578.611 88.0658 576.954 82.2656C575.33 76.4323 572.132 71.9579 567.359 68.8423C562.619 65.6937 556.272 64.1193 548.318 64.1193H528.183L514.958 144.062ZM616.496 156.79C611.657 156.79 607.415 155.878 603.769 154.055C600.123 152.199 597.422 149.531 595.665 146.051C593.909 142.538 593.428 138.295 594.223 133.324C594.986 128.949 596.461 125.402 598.648 122.685C600.836 119.934 603.487 117.779 606.603 116.222C609.751 114.631 613.132 113.454 616.745 112.692C620.391 111.896 624.02 111.283 627.633 110.852C632.339 110.256 636.167 109.792 639.117 109.46C642.067 109.129 644.287 108.582 645.779 107.82C647.27 107.057 648.182 105.748 648.513 103.892V103.494C649.309 98.6222 648.662 94.8272 646.574 92.1094C644.486 89.3584 640.758 87.983 635.388 87.983C629.82 87.983 625.163 89.2093 621.418 91.6619C617.673 94.1146 614.905 96.733 613.115 99.517L602.775 95.5398C605.492 90.8996 608.74 87.2869 612.519 84.7017C616.297 82.0833 620.258 80.2604 624.401 79.233C628.544 78.1723 632.538 77.642 636.383 77.642C638.835 77.642 641.603 77.9403 644.685 78.5369C647.767 79.1004 650.651 80.277 653.336 82.0668C656.053 83.8565 658.092 86.5578 659.451 90.1705C660.843 93.7831 661.042 98.6222 660.047 104.688L651.695 155H639.962L641.752 144.659H641.155C640.095 146.316 638.471 148.089 636.283 149.979C634.129 151.868 631.394 153.475 628.08 154.801C624.799 156.127 620.937 156.79 616.496 156.79ZM619.877 146.25C624.517 146.25 628.577 145.339 632.057 143.516C635.571 141.693 638.388 139.339 640.509 136.456C642.663 133.572 644.006 130.54 644.536 127.358L646.326 116.619C645.729 117.216 644.553 117.763 642.796 118.26C641.039 118.724 639.051 119.138 636.83 119.503C634.642 119.834 632.505 120.133 630.417 120.398C628.362 120.63 626.705 120.829 625.445 120.994C622.33 121.392 619.363 122.038 616.546 122.933C613.762 123.795 611.409 125.104 609.486 126.861C607.597 128.584 606.42 130.937 605.956 133.92C605.26 137.997 606.238 141.08 608.89 143.168C611.541 145.223 615.204 146.25 619.877 146.25ZM713.448 78.6364L711.857 88.5795H672.283L673.874 78.6364H713.448ZM688.391 60.3409H700.124L687.993 133.125C687.463 136.439 687.546 138.925 688.242 140.582C688.971 142.206 690.065 143.3 691.523 143.864C693.014 144.394 694.622 144.659 696.345 144.659C697.638 144.659 698.699 144.593 699.527 144.46C700.356 144.295 701.019 144.162 701.516 144.062L702.311 154.602C701.416 154.901 700.207 155.199 698.682 155.497C697.191 155.829 695.351 155.994 693.164 155.994C689.849 155.994 686.734 155.282 683.817 153.857C680.9 152.431 678.663 150.26 677.105 147.344C675.548 144.427 675.133 140.748 675.862 136.307L688.391 60.3409ZM735.042 156.79C730.203 156.79 725.961 155.878 722.315 154.055C718.669 152.199 715.968 149.531 714.211 146.051C712.455 142.538 711.974 138.295 712.77 133.324C713.532 128.949 715.007 125.402 717.194 122.685C719.382 119.934 722.033 117.779 725.149 116.222C728.297 114.631 731.678 113.454 735.291 112.692C738.937 111.896 742.566 111.283 746.179 110.852C750.885 110.256 754.713 109.792 757.663 109.46C760.613 109.129 762.833 108.582 764.325 107.82C765.816 107.057 766.728 105.748 767.059 103.892V103.494C767.855 98.6222 767.208 94.8272 765.12 92.1094C763.032 89.3584 759.304 87.983 753.934 87.983C748.366 87.983 743.709 89.2093 739.964 91.6619C736.219 94.1146 733.451 96.733 731.662 99.517L721.321 95.5398C724.038 90.8996 727.287 87.2869 731.065 84.7017C734.843 82.0833 738.804 80.2604 742.947 79.233C747.09 78.1723 751.084 77.642 754.929 77.642C757.381 77.642 760.149 77.9403 763.231 78.5369C766.314 79.1004 769.197 80.277 771.882 82.0668C774.6 83.8565 776.638 86.5578 777.997 90.1705C779.389 93.7831 779.588 98.6222 778.593 104.688L770.241 155H758.508L760.298 144.659H759.701C758.641 146.316 757.017 148.089 754.829 149.979C752.675 151.868 749.94 153.475 746.626 154.801C743.345 156.127 739.484 156.79 735.042 156.79ZM738.423 146.25C743.063 146.25 747.123 145.339 750.603 143.516C754.117 141.693 756.934 139.339 759.055 136.456C761.209 133.572 762.552 130.54 763.082 127.358L764.872 116.619C764.275 117.216 763.099 117.763 761.342 118.26C759.585 118.724 757.597 119.138 755.376 119.503C753.189 119.834 751.051 120.133 748.963 120.398C746.908 120.63 745.251 120.829 743.991 120.994C740.876 121.392 737.909 122.038 735.092 122.933C732.308 123.795 729.955 125.104 728.032 126.861C726.143 128.584 724.967 130.937 724.502 133.92C723.806 137.997 724.784 141.08 727.436 143.168C730.087 145.223 733.75 146.25 738.423 146.25Z" fill="url(#paint0_linear_16_4)"/>
<defs>
<linearGradient id="paint0_linear_16_4" x1="-1.09684e-06" y1="143.564" x2="792.804" y2="-22.3113" gradientUnits="userSpaceOnUse">
<stop stop-color="#F0F4FF"/>
<stop offset="1" stop-color="#0D1F3C"/>
</linearGradient>
</defs>
</svg>
